<?xml version="1.0" standalone="no"?>
<!DOCTYPE svg PUBLIC "-//W3C//DTD SVG 20010904//EN"
 "http://www.w3.org/TR/2001/REC-SVG-20010904/DTD/svg10.dtd">
<svg version="1.0"
    xmlns="http://www.w3.org/2000/svg" width="634.000000pt" height="540.000000pt" viewBox="0 0 634.000000 540.000000" preserveAspectRatio="xMidYMid meet">
    <metadata>
Created by potrace 1.16, written by Peter Selinger 2001-2019
    </metadata>
    <g transform="translate(0.000000,540.000000) scale(0.100000,-0.100000)" fill="#000000" stroke="none">
        <path d="M4500 5335 c-66 -17 -219 -78 -258 -102 -206 -134 -390 -319 -466
-471 -33 -66 -90 -222 -119 -327 -19 -70 -22 -104 -22 -280 1 -226 24 -468 60
-610 13 -49 22 -90 21 -91 0 -1 -44 4 -96 10 -121 14 -775 14 -898 0 -85 -9
-94 -8 -103 7 -6 11 -5 28 2 46 20 52 86 327 108 448 12 66 28 145 36 175 19
72 19 160 -1 251 -20 89 -42 128 -97 170 -23 18 -56 46 -74 62 -75 70 -374
116 -530 82 -173 -37 -357 -109 -397 -154 -11 -11 -23 -21 -27 -21 -14 0 -109
-60 -198 -124 -103 -76 -291 -248 -327 -301 -14 -22 -41 -56 -59 -76 -51 -56
-113 -168 -130 -234 -21 -81 -20 -193 3 -252 27 -70 85 -156 128 -189 75 -58
364 -359 364 -379 0 -21 -77 -89 -200 -177 -124 -90 -440 -419 -514 -538 -17
-26 -61 -93 -99 -147 -118 -171 -152 -226 -204 -323 -28 -52 -65 -120 -82
-150 -99 -176 -147 -294 -186 -456 -15 -60 -38 -147 -52 -194 -33 -111 -44
-351 -20 -445 35 -138 56 -176 136 -255 92 -90 161 -126 316 -169 107 -29 137
-32 575 -71 254 -22 594 -32 785 -22 190 10 706 18 885 15 159 -3 2007 -15
2135 -14 66 1 199 8 295 17 96 8 231 19 299 25 69 5 161 18 205 28 45 11 104
23 131 27 56 8 169 45 225 74 67 34 145 114 174 179 35 79 66 219 66 306 0 82
-25 300 -41 365 -19 72 -126 366 -174 475 -75 172 -186 387 -243 470 -30 44
-83 122 -117 172 -158 232 -515 610 -659 697 -31 19 -74 50 -96 70 l-40 36
102 126 c57 69 113 140 126 157 12 18 28 37 36 42 7 6 50 64 95 130 45 66 111
161 147 210 135 187 212 391 221 591 7 151 -6 230 -59 349 -23 50 -45 104 -49
121 -5 17 -45 92 -90 165 -69 115 -96 150 -194 246 -100 99 -123 117 -201 153
-129 60 -226 82 -374 86 -85 2 -143 -1 -180 -11z m-128 -3502 c42 -38 10 -86
-80 -119 -129 -46 -161 -70 -278 -207 -48 -57 -114 -44 -114 22 0 61 142 215
235 256 160 70 203 79 237 48z m-2277 -57 c103 -27 208 -101 283 -198 45 -59
52 -91 25 -120 -31 -35 -58 -23 -150 70 -77 77 -97 92 -158 115 -38 14 -82 28
-97 31 -35 8 -58 32 -58 61 0 53 55 68 155 41z m1143 -178 c73 -22 141 -112
142 -187 0 -62 -21 -109 -71 -156 -27 -25 -55 -45 -64 -45 -26 0 -17 -16 55
-93 73 -78 85 -110 54 -141 -35 -36 -81 -11 -174 96 -40 46 -76 84 -80 86 -4
1 -26 -22 -49 -53 -55 -72 -134 -135 -171 -135 -33 0 -60 23 -60 52 0 18 84
108 101 108 13 0 62 84 51 88 -33 11 -78 52 -99 91 -63 120 12 278 144 300 49
9 179 2 221 -11z"/>
    </g>
</svg>
